# xmcd CD database file
#
# Track frame offsets:
#	150
#	14970
#	30291
#	44205
#	53974
#	68032
#	79838
#	93521
#	105575
#	125531
#	141539
#	164489
#	184034
#	200348
#	209150
#	224797
#
# Disc length: 3211 seconds
#
# Revision: 9
# Processed by: cddbd v1.5.2PL0 Copyright (c) Steve Scherf et al.
# Submitted via: CDex 1.70beta2
#
DISCID=020c8910
DTITLE=B.B. KING - B.B.'s Boogie
DYEAR=1995
DGENRE=Blues
TTITLE0=B.B.'s Boogie
TTITLE1=Precious Lord
TTITLE2=Servant's Prayer
TTITLE3=Swing Low Sweet Chariot  - Rock Me Lord
TTITLE4=Save A Seat For Me
TTITLE5=I Never Heard A Man
TTITLE6=Army Of The Lord
TTITLE7=Paying The Cost To Be The Boss
TTITLE8=How Blue Can You Get
TTITLE9=The Letter
TTITLE10=Everyday I Have The Blues
TTITLE11=Sweet Sixteen (Parts 1 and 2)
TTITLE12=The Other Night Blues
TTITLE13=A New Way Of Driving
TTITLE14=Walkin' And Cryin'
TTITLE15=It's My Own Fault
EXTD=YEAR: 1995
EXTT0=
EXTT1=
EXTT2=
EXTT3=
EXTT4=
EXTT5=
EXTT6=
EXTT7=
EXTT8=
EXTT9=
EXTT10=
EXTT11=
EXTT12=
EXTT13=
EXTT14=
EXTT15=
PLAYORDER=
